<svg version="1" xmlns="http://www.w3.org/2000/svg" width="360" height="360" viewBox="0 0 270.000000 270.000000"><path d="M61.2 2.5C51.6 7.4 48 14.4 48 28.5c0 8.4-.2 9.5-1.7 9.5-19.6.4-23 .8-26.8 2.7-4.4 2.3-7.6 6.1-9.3 11.2-1.6 4.5-1.7 197.7-.2 203.3 1.4 4.8 5.3 9.4 10.1 11.8 3.7 2 6.6 2 114.1 2 104.8 0 110.5-.1 114.3-1.9 5-2.3 9.1-7 10.5-12.1.7-2.6 1-36.3.8-103.8l-.3-99.9-2.8-4c-1.5-2.2-4.6-5-6.9-6.3-4.1-2.3-8.4-2.8-25-3H221v-8.8c0-10.7-1.8-16.7-6.6-21.6-5.6-5.8-8.7-7-20.1-7.4-12.8-.5-18.2 1.1-24.2 7.2-5.3 5.4-7.1 11.1-7.1 22.5v8.6l-27.3-.2c-14.9-.1-27.9-.2-28.8-.2-1.4-.1-1.7-1.8-2.1-10.9-.4-11.6-1.6-15.1-6.9-20.3C92.5 1.6 89.4.6 77.5.2 67.2-.1 66.2 0 61.2 2.5zm23.6 17.7c1.6 1.6 1.7 47 .2 49.9-.9 1.6-2.2 1.9-8.3 1.9-4.4 0-7.8-.5-8.5-1.2-1.7-1.7-1.7-48.9 0-50.6.7-.7 4.1-1.2 8.3-1.2 4.2 0 7.6.5 8.3 1.2zm116.2.7c.6 1.2 1 11 1 25 0 27.1.4 26.1-10 26.1s-10 1.1-10-26.5c0-27.7-.5-26.5 10.5-26.5 6.3 0 7.6.3 8.5 1.9zM241 173v77H28V96h213v77z"/><path d="M158.7 164l-34.2 34-17-17c-12.9-12.9-17.6-17-19.5-17-3.2 0-11 8-11 11.2 0 3.2 44.5 47.8 47.7 47.8 1.5 0 14.2-12 42.1-40 34.3-34.3 39.9-40.3 39.4-42.2-.8-3.2-8.7-10.8-11.2-10.8-1.4 0-13.1 10.9-36.3 34z"/></svg>